<svg xmlns="http://www.w3.org/2000/svg" width="250" height="250" fill="none" viewBox="0 0 250 250">
<!-- SVG created with Arrow, by QuiverAI (https://quiver.ai) -->
  <path d="m197.7 70.92-34.79-38.39c-1.2-1.34-2.57-1.7-3.76-1.7h-90.88c-9.37 0-15.61 9.03-15.61 16.13v153c0 8.66 7.75 14.82 15.09 14.82h34.33c3.82 0 4.53-3.29 4.53-4.76v-75.51h20.29v-9.65h-64.09v-77.33c0-4.07 2.77-6.25 5.37-6.25h85.77v29.08c0 6.31 4.9 9.54 8.72 9.54l26.25-0.04v74.8h-46.29v-39.03c-4.96-1.6-8.03-3.59-10.88-6.24v49.89c0 3.85 3.16 5.74 5.25 5.74h51.78v34.2c0 4.19-3.08 6.01-5.68 6.01h-70.93v1.65c0 3.25-0.77 5.94-2.39 7.9h73.62c9.78 0 15.53-8.92 15.53-15.71v-124c0-1.7-0.53-3.25-1.23-4.16zm-33.6-22 18.51 20.52-18.51 0.03v-20.55zm-67.64 85.64v70.36h-28.28c-3.48 0-5.37-3.16-5.37-5.26v-65.1h33.65z" fill="url(#paint0_linear_1_218)"/>
  <path d="m145.1 100c-2.23-1.02-3.39-3.4-3.39-4.99v-24.74c4.08 0 5.06-2.87 5.06-4.67 0-2.72-1.85-5.1-4.48-5.1h-33.26c-3.48 0-4.31 2.91-4.31 4.95 0 2.52 1.9 4.82 4.46 4.82v24.43c0 3-1.45 5.05-3.42 5.91-10.57 4.76-18.47 12.45-22.81 19.65h13.09c4.95-5.61 9.59-8.91 14.38-11.14 6.57-3.01 8.91-9.84 8.91-14.11v-24.74h12.8v25.15c0 6.68 4.49 13.28 10.07 15.18 11.93 5.4 25.02 17.2 25.02 38.69v0.09l10.57-0.03v-1.05c0-20.99-12.89-39.6-32.69-48.3z" fill="#bffd05"/>
  <path d="m85.24 140h-10.83c-0.55 3.28-0.67 6.07-0.67 8.78 0 13.18 6.04 26.49 16.18 37.63l1.49-0.03v-15.58c-5.32-7.65-7.28-16.8-6.17-30.8z" fill="#bffd05"/>
  <path d="m125.7 189.6c-5.7 0-10.6-1.11-13.85-2.45l-0.09 10.87c4.39 1.34 8.73 1.55 13.59 1.55 19.8 0 36.87-12.42 47.01-29.5h-11.18c-8.32 12.42-20.52 19.53-35.48 19.53z" fill="#bffd05"/>
  <defs>
    <linearGradient id="paint0_linear_1_218" x1="125.8" x2="125.8" y1="30.83" y2="214.8" gradientUnits="userSpaceOnUse">
      <stop stop-color="#FFFFFF" offset="0"/>
      <stop stop-color="#FFFFFF" offset="1"/>
    </linearGradient>
  </defs>
</svg>